<svg width="100" height="100" viewBox="0 0 512 504" fill="none" xmlns="http://www.w3.org/2000/svg">
<path d="M199.593 217.288V226.14C199.585 230.834 195.782 234.637 191.089 234.644C175.577 234.616 161.934 244.893 157.679 259.81L157.332 261.025C157.332 261.025 140.496 270.571 138.848 260.678C137.377 251.846 128.737 189.085 130.17 182.576C137.46 149.079 208.272 147.864 208.272 147.864V165.22C182.237 182.576 199.593 217.288 199.593 217.288Z" fill="#95A5A5"/>
<path d="M503.322 95.797H451.254C446.461 95.797 442.576 91.912 442.576 87.119C442.576 82.326 446.461 78.441 451.254 78.441H503.322C508.115 78.441 512 82.326 512 87.119C512 91.911 508.115 95.797 503.322 95.797Z" fill="#95A5A5"/>
<path d="M451.254 78.441V95.797C451.24 100.584 447.363 104.461 442.576 104.475H399.186V69.763H442.576C447.363 69.777 451.24 73.654 451.254 78.441Z" fill="#ECF0F1"/>
<path d="M416.542 70.457V103.78C416.731 108.229 413.869 112.236 409.6 113.499L373.153 121.83H355.797V52.407H373.153L409.6 60.738C413.87 62.002 416.731 66.008 416.542 70.457Z" fill="#D1D4D1"/>
<path d="M373.153 52.407V121.831C373.125 131.405 365.371 139.159 355.797 139.187H286.373V35.051H355.797C365.37 35.079 373.125 42.833 373.153 52.407Z" fill="#7F8C8D"/>
<path d="M303.729 43.729V130.509C303.701 140.083 295.947 147.837 286.373 147.865H260.339C255.552 147.851 251.675 143.974 251.661 139.187L234.305 147.865V26.373L251.661 35.052V35.051C251.638 32.743 252.545 30.522 254.177 28.889C255.809 27.257 258.03 26.35 260.339 26.373H286.373C295.947 26.401 303.701 34.155 303.729 43.729Z" fill="#95A5A5"/>
<path d="M269.017 69.763H251.661C246.868 69.763 242.983 65.878 242.983 61.085C242.983 56.292 246.868 52.407 251.661 52.407H269.017C273.81 52.407 277.695 56.292 277.695 61.085C277.695 65.877 273.81 69.763 269.017 69.763Z" fill="#7F8C8D"/>
<path d="M269.017 121.83H251.661C246.868 121.83 242.983 117.945 242.983 113.152C242.983 108.359 246.868 104.474 251.661 104.474H269.017C273.81 104.474 277.695 108.359 277.695 113.152C277.695 117.945 273.81 121.83 269.017 121.83Z" fill="#7F8C8D"/>
<path d="M254.178 28.889C252.565 30.534 251.662 32.746 251.661 35.05V147.864C251.633 157.438 243.879 165.192 234.305 165.22H190.915C190.915 165.22 151.604 169.559 144.314 203.056C141.277 216.854 143.62 235.425 156.203 260.678L157.331 261.025L131.037 353.098C130.44 355.126 130.147 357.232 130.169 359.346C130.184 371.944 140.394 382.154 152.992 382.169L190.915 390.847L34.712 399.525V382.169L46.948 369.933C50.224 366.669 52.066 362.235 52.068 357.61V321.423C52.977 281.626 59.372 242.145 71.073 204.097C71.416 202.901 71.677 201.684 71.854 200.452C73.51 188.941 67.303 177.734 56.668 173.03L15.448 154.719C6.04802 150.547 -0.0069779 141.226 2.21016e-05 130.942V43.729C-0.0089779 36.822 2.73102 30.194 7.61502 25.31C12.499 20.426 19.126 17.686 26.034 17.695H84.697C91.597 17.675 98.209 14.93 103.094 10.058L105.177 7.975C110.062 3.103 116.675 0.357997 123.574 0.337997H201.068C205.779 0.341997 210.4 1.632 214.432 4.07L251.66 26.372L254.178 28.889Z" fill="#E4C05C"/>
<path d="M286.373 448.469V477.02C286.393 482.817 283.489 488.233 278.65 491.425L264.678 500.71C261.838 502.641 258.48 503.67 255.045 503.661H60.7451C51.5381 503.664 42.7081 500.007 36.1971 493.497C29.6871 486.987 26.0301 478.156 26.0331 468.949V398.05C26.0351 393.425 27.8771 388.992 31.1531 385.727L34.7111 382.169H211.742C231.345 382.157 249.743 391.631 261.12 407.595L283.162 438.402C285.252 441.343 286.374 444.862 286.373 448.469Z" fill="#7F8C8D"/>
<path d="M286.373 448.469V460.271H26.0341V398.05C26.0361 393.425 27.8781 388.992 31.1541 385.727L34.7121 382.169H211.743C231.346 382.157 249.744 391.631 261.121 407.595L283.163 438.402C285.252 441.343 286.374 444.862 286.373 448.469Z" fill="#B19046"/>
<path d="M69.424 52.407H43.39C38.597 52.407 34.712 56.292 34.712 61.085V107.278C34.712 110.826 36.872 114.017 40.167 115.335L66.201 125.749C68.875 126.818 71.905 126.492 74.289 124.878C76.673 123.264 78.102 120.572 78.102 117.692V61.085C78.102 56.292 74.216 52.407 69.424 52.407Z" fill="#B19046"/>
<path d="M347.119 69.763C347.105 74.55 343.228 78.427 338.441 78.441H303.729V61.085H338.441C343.227 61.099 347.104 64.976 347.119 69.763Z" fill="#95A5A5"/>
<path d="M208.271 61.085H121.491C116.698 61.085 112.813 57.2 112.813 52.407C112.813 47.614 116.698 43.729 121.491 43.729H208.271C213.064 43.729 216.949 47.614 216.949 52.407C216.949 57.2 213.064 61.085 208.271 61.085Z" fill="#F3D55B"/>
<path d="M208.271 95.797H121.491C116.698 95.797 112.813 91.912 112.813 87.119C112.813 82.326 116.698 78.441 121.491 78.441H208.271C213.064 78.441 216.949 82.326 216.949 87.119C216.949 91.911 213.064 95.797 208.271 95.797Z" fill="#F3D55B"/>
<path d="M208.271 130.508H121.491C116.698 130.508 112.813 126.623 112.813 121.83C112.813 117.037 116.698 113.152 121.491 113.152H208.271C213.064 113.152 216.949 117.037 216.949 121.83C216.949 126.623 213.064 130.508 208.271 130.508Z" fill="#F3D55B"/>
</svg>
