<svg version="1.1" id="Layer_1" xmlns="http://www.w3.org/2000/svg" xmlns:xlink="http://www.w3.org/1999/xlink" x="0px" y="0px"
	 viewBox="0 0 511.999 511.999" fill="#483d8b" style="enable-background:new 0 0 511.999 511.999;" xml:space="preserve">
<g>
	<g>
		<g>
			<path d="M501.923,247.904c-5.521,0-9.997,4.476-9.997,9.997c0,53.28-18.185,105.649-51.209,147.458
				c-3.423,4.333-2.685,10.619,1.648,14.042c1.835,1.45,4.02,2.152,6.189,2.152c2.954,0,5.879-1.304,7.853-3.801
				c35.798-45.323,55.512-102.092,55.512-159.851C511.92,252.38,507.444,247.904,501.923,247.904z"/>
			<path d="M422.541,425.827c-0.147,0.143-0.29,0.288-0.433,0.436c-3.829,3.978-3.696,10.293,0.281,14.122
				c1.937,1.864,4.433,2.788,6.926,2.788c2.621,0,5.24-1.022,7.204-3.051c3.906-3.85,3.983-10.136,0.158-14.08
				C432.834,422.079,426.504,421.982,422.541,425.827z"/>
			<path d="M130.062,53.212c1.696,0,3.415-0.432,4.989-1.341c36.122-20.854,77.257-31.878,118.96-31.878
				c5.522,0,9.997-4.476,9.997-9.997c0-5.521-4.476-9.997-9.997-9.997c-45.208,0-89.8,11.949-128.956,34.556
				c-4.781,2.76-6.42,8.874-3.659,13.656C123.247,51.42,126.607,53.212,130.062,53.212z"/>
			<path d="M135.061,463.948c-36.12-20.853-66.234-50.967-87.086-87.082c-2.761-4.781-8.875-6.42-13.657-3.659
				c-4.78,2.761-6.419,8.875-3.658,13.656c22.604,39.151,55.249,71.793,94.404,94.399c1.574,0.909,3.292,1.341,4.988,1.341
				c3.455,0,6.815-1.793,8.667-4.999C141.481,472.823,139.843,466.709,135.061,463.948z"/>
			<path d="M111.232,163.948c-4.805-2.402-10.621-0.573-13.205,4.08c-2.675,4.716-1.098,10.724,3.582,13.512
				c1.604,0.956,3.365,1.41,5.106,1.41c3.405,0,6.727-1.741,8.598-4.878c0.127-0.213,0.278-0.489,0.39-0.711
				C118.171,172.422,116.17,166.417,111.232,163.948z"/>
			<path d="M424.64,315.325c6.239-18.534,9.402-37.853,9.402-57.418c0-11.454-1.075-22.743-3.153-33.758
				c6.094-2.624,11.184-5.915,15.559-9.95c22.892-21.107,28.716-66.303,13.55-105.128c-14.796-37.876-45.088-59.599-83.106-59.599
				c-46.469,0-90.89,26.944-125.079,75.866c-23.155,33.136-39.642,74.379-44.742,110.321c-2.001-4.155-3.981-8.367-5.951-12.563
				c-3.52-7.496-7.162-15.246-10.89-22.586c-25.023-49.276-44.547-79.373-70.289-87.401c-5.32-1.659-11.109-2.501-17.204-2.501
				c-33.076,0-70.957,24.031-90.072,57.14c-16.569,28.7-16.785,59.937-0.606,87.959c14.973,25.936,39.384,45.531,70.564,57.566
				c8.638,26.836,23.579,51.425,44.087,71.934c1.951,1.952,4.512,2.928,7.069,2.928c2.558,0,5.117-0.976,7.069-2.928
				c3.904-3.904,3.904-10.234,0-14.138c-14.7-14.7-26.178-31.761-34.101-50.323c17.282,4.148,36.108,6.313,56.161,6.313
				c33.84,0,67.946-6.327,95.236-17.33c-2.479,3.664-5.096,7.456-7.829,11.38c-4.732,6.799-9.628,13.829-14.122,20.729
				c-30.162,46.311-46.465,78.269-40.548,104.573c3.907,17.371,17.04,33.908,36.976,46.57c19.031,12.084,42.351,19.015,63.98,19.015
				c33.139,0,60.3-15.433,76.48-43.456c23.235-40.245,22.112-92.187-3.163-146.256c-17.118-36.621-44.591-71.519-73.168-93.908
				c4.617,0.347,9.264,0.738,13.856,1.128c8.251,0.699,16.783,1.423,25.003,1.864c14.277,0.767,26.224,1.14,36.524,1.14
				c15.784,0,28.711-0.885,39.445-2.814c1.63,9.221,2.469,18.651,2.469,28.211c0,17.393-2.812,34.565-8.357,51.04
				c-1.761,5.232,1.054,10.903,6.286,12.663c1.058,0.356,2.133,0.525,3.189,0.525C419.342,322.136,423.236,319.501,424.64,315.325z
				 M162.911,307.066c-23.469,0-44.997-3.171-63.924-9.202c-3.3-12.897-5.008-26.296-5.008-39.957
				c0-18.584,3.198-36.865,9.508-54.338c1.875-5.193-0.815-10.923-6.007-12.798c-5.196-1.874-10.925,0.815-12.799,6.008
				c-7.098,19.657-10.696,40.223-10.696,61.129c0,10.46,0.888,20.782,2.624,30.884c-20.578-10.367-36.744-24.917-47.231-43.08
				c-15.966-27.653-8.483-52.224,0.605-67.966c15.516-26.877,46.795-47.143,72.756-47.143c4.073,0,7.859,0.537,11.25,1.594
				c16.565,5.165,32.398,26.135,58.416,77.367c3.588,7.065,7.162,14.674,10.618,22.034c12.508,26.63,25.321,53.907,43.931,67.315
				C206.985,304.132,184.692,307.066,162.911,307.066z M254.015,286.54c-15.788,0-28.632-12.844-28.632-28.632
				c0-0.407,0.014-0.811,0.03-1.215c0.007-0.174,0.017-0.348,0.027-0.522c0.02-0.317,0.043-0.633,0.072-0.947
				c0.015-0.152,0.029-0.304,0.047-0.457c1.568-14.315,13.73-25.493,28.456-25.493c15.788,0,28.633,12.845,28.633,28.633
				S269.803,286.54,254.015,286.54z M299.9,275.07c1.642-5.006,2.685-9.798,3.127-14.373c19.181,19.382,36.701,44.214,48.782,70.058
				c12.99,27.788,30.778,81.343,3.961,127.793c-15.967,27.654-40.987,33.459-59.165,33.459c-17.935,0-37.348-5.795-53.26-15.9
				c-15.217-9.662-25.492-22.084-28.189-34.079c-3.809-16.927,6.436-41.122,37.796-89.274c4.327-6.642,9.131-13.544,13.777-20.219
				C280.041,313.41,293.807,293.635,299.9,275.07z M381.314,130.605c-3.905-3.904-10.235-3.904-14.139,0
				c-3.904,3.904-3.904,10.234,0,14.139c18.623,18.623,32.082,41.031,39.678,65.486c-9.202,1.56-20.604,2.287-34.717,2.287
				c-9.938,0.001-21.534-0.363-35.45-1.111c-7.911-0.426-16.288-1.136-24.388-1.822c-13.398-1.136-27.252-2.31-40.043-2.31
				c-17.297,0-30.222,2.164-40.329,6.788c7.193-26.303,19.938-53.887,36.279-77.272c17.57-25.143,55.056-67.325,108.69-67.325
				c40.17,0,57.643,29.373,64.483,46.881c11.931,30.538,8.126,67.841-8.48,83.153c-1.966,1.812-4.265,3.415-6.932,4.825
				C417.422,176.793,402.276,151.568,381.314,130.605z"/>
		</g>
	</g>
</g>
</svg>
