<svg version="1.1" id="Capa_1" xmlns="http://www.w3.org/2000/svg" xmlns:xlink="http://www.w3.org/1999/xlink" x="0px" y="0px"
	 viewBox="0 0 512 512" fill="#483d8b" style="enable-background:new 0 0 512 512;" xml:space="preserve">
<g>
	<g>
		<path d="M482,272c-16.553,0-30,13.462-30,30v180c0,16.538,13.447,30,30,30c16.553,0,30-13.462,30-30V302
			C512,285.462,498.553,272,482,272z"/>
	</g>
</g>
<g>
	<g>
		<path d="M30,272c-16.553,0-30,13.462-30,30v180c0,16.538,13.447,30,30,30s30-13.462,30-30V302C60,285.462,46.553,272,30,272z"/>
	</g>
</g>
<g>
	<g>
		<path d="M256,0c-8.291,0-15,6.709-15,15v30c0,8.291,6.709,15,15,15s15-6.709,15-15V15C271,6.709,264.291,0,256,0z"/>
	</g>
</g>
<g>
	<g>
		<path d="M256,90c-8.291,0-15,6.709-15,15v30c0,8.291,6.709,15,15,15s15-6.709,15-15v-30C271,96.709,264.291,90,256,90z"/>
	</g>
</g>
<g>
	<g>
		<path d="M256,180c-8.291,0-15,6.709-15,15v30c0,8.291,6.709,15,15,15s15-6.709,15-15v-30C271,186.709,264.291,180,256,180z"/>
	</g>
</g>
<g>
	<g>
		<path d="M103.979,63.486l-15-25.986c-4.102-7.207-13.301-9.624-20.479-5.493c-7.178,4.146-9.639,13.315-5.479,20.493l15,25.986
			c4.082,7.122,13.236,9.651,20.479,5.493C105.678,79.833,108.139,70.664,103.979,63.486z"/>
	</g>
</g>
<g>
	<g>
		<path d="M148.979,141.416l-15-25.972c-4.131-7.222-13.33-9.639-20.479-5.493c-7.178,4.146-9.639,13.315-5.479,20.493l15,25.972
			c4.09,7.158,13.264,9.635,20.479,5.493C150.678,157.763,153.139,148.594,148.979,141.416z"/>
	</g>
</g>
<g>
	<g>
		<path d="M193.979,219.36l-15-25.972c-4.131-7.192-13.33-9.639-20.479-5.493c-7.178,4.146-9.639,13.315-5.479,20.493l15,25.972
			c4.09,7.158,13.264,9.635,20.479,5.493C195.678,235.707,198.139,226.538,193.979,219.36z"/>
	</g>
</g>
<g>
	<g>
		<path d="M443.5,32.007c-7.148-4.087-16.348-1.685-20.479,5.493l-15,25.986c-4.16,7.178-1.699,16.348,5.479,20.493
			c7.242,4.158,16.397,1.628,20.479-5.493l15-25.986C453.139,45.322,450.678,36.152,443.5,32.007z"/>
	</g>
</g>
<g>
	<g>
		<path d="M398.5,109.951c-7.148-4.102-16.348-1.714-20.479,5.493l-15,25.972c-4.16,7.178-1.699,16.348,5.479,20.493
			c7.215,4.142,16.388,1.665,20.479-5.493l15-25.972C408.139,123.266,405.678,114.096,398.5,109.951z"/>
	</g>
</g>
<g>
	<g>
		<path d="M353.5,187.896c-7.148-4.102-16.348-1.685-20.479,5.493l-15,25.972c-4.16,7.177-1.699,16.347,5.479,20.493
			c7.215,4.142,16.388,1.665,20.479-5.493l15-25.972C363.139,201.211,360.678,192.041,353.5,187.896z"/>
	</g>
</g>
<g>
	<g>
		<path d="M301,302l-45,45l30,75l-90-75l40.499-40.499C233.8,303.5,230.2,302,226,302H90v180h332V302H301z"/>
	</g>
</g>
</svg>
