<svg height="384pt" viewBox="-32 0 384 384" width="384pt" xmlns="http://www.w3.org/2000/svg"><path d="m252.886719 6.519531c-3.015625-4.09375-7.792969-6.519531-12.890625-6.519531h-152c-8.832032 0-16 7.167969-16 16v41.375l-44.6875-44.6875c-6.238282-6.246094-16.382813-6.246094-22.621094 0-6.25 6.25-6.25 16.375 0 22.625l67.308594 67.3125v105.375c0 8.832031 7.167968 16 16 16h32v144c0 7.257812 4.882812 13.601562 11.898437 15.464844 1.359375.367187 2.742188.535156 4.101563.535156 5.640625 0 10.992187-2.992188 13.890625-8.0625l71.0625-124.363281 71.738281 71.738281c3.125 3.128906 7.214844 4.6875 11.308594 4.6875 4.097656 0 8.1875-1.558594 11.3125-4.6875 6.25-6.25 6.25-16.375 0-22.625l-77.902344-77.902344 40.480469-70.847656c2.832031-4.953125 2.816406-11.035156-.058594-15.96875-2.855469-4.9375-8.125-7.96875-13.832031-7.96875h-42.230469l33.503906-107.222656c1.519531-4.867188.632813-10.152344-2.382812-14.257813zm-100.890625 301.234375v-99.753906c0-8.832031-7.167969-16-16-16h-32v-57.375l93.507812 93.503906zm84.433594-147.753906-22.472657 39.328125-109.960937-109.953125v-57.375h114.234375l-33.503907 107.222656c-1.511718 4.855469-.632812 10.152344 2.382813 14.25 3.015625 4.09375 7.792969 6.527344 12.886719 6.527344zm0 0"/></svg>