<svg height="512pt" fill="#000" viewBox="-91 0 512 512" width="512pt" xmlns="http://www.w3.org/2000/svg"><path d="m98.953125 367.191406-16.621094 24.9375c5.949219 3.96875 9.363281 10.347656 9.363281 17.5s-3.414062 13.53125-9.363281 17.5c-14.222656 9.480469-22.710937 25.34375-22.710937 42.433594 0 17.09375 8.488281 32.957031 22.710937 42.4375l16.621094-24.933594c-5.949219-3.96875-9.367187-10.347656-9.367187-17.503906 0-7.152344 3.417968-13.53125 9.367187-17.5 14.222656-9.480469 22.710937-25.34375 22.710937-42.433594s-8.488281-32.957031-22.710937-42.4375zm0 0"/><path d="m173.875 367.191406-16.625 24.9375c5.953125 3.96875 9.367188 10.347656 9.367188 17.5s-3.414063 13.53125-9.367188 17.5c-14.21875 9.480469-22.710938 25.34375-22.710938 42.433594 0 17.09375 8.492188 32.957031 22.710938 42.4375l16.625-24.933594c-5.953125-3.96875-9.367188-10.347656-9.367188-17.503906 0-7.152344 3.414063-13.53125 9.367188-17.5 14.21875-9.480469 22.710938-25.34375 22.710938-42.433594s-8.492188-32.957031-22.710938-42.4375zm0 0"/><path d="m248.792969 367.191406-16.621094 24.9375c5.949219 3.96875 9.363281 10.347656 9.363281 17.5s-3.414062 13.53125-9.363281 17.5c-14.222656 9.480469-22.710937 25.34375-22.710937 42.433594 0 17.09375 8.488281 32.957031 22.710937 42.4375l16.621094-24.933594c-5.949219-3.96875-9.367188-10.347656-9.367188-17.503906 0-7.152344 3.417969-13.53125 9.367188-17.5 14.222656-9.480469 22.710937-25.34375 22.710937-42.433594s-8.488281-32.957031-22.710937-42.4375zm0 0"/><path d="m329.636719 181.324219v-106.402344c0-41.3125-33.609375-74.921875-74.917969-74.921875h-69.199219l-10.332031 20.664062c-20.335938 40.671876-46.550781 57.695313-76.90625 77.414063-20.863281 13.546875-44.511719 28.90625-68.488281 53.507813-26.984375 27.679687-36.847657 67.570312-24.585938 106.550781 13.488281 42.867187 53.546875 71.515625 99.859375 71.511719.289063 0 .585938-.003907.871094-.003907 31.460938-.246093 49.328125-11.191406 63.679688-19.988281 10.398437-6.371094 16.695312-9.976562 25.164062-9.976562 7.851562 0 10.824219 2.8125 17.382812 9.742187 7.957032 8.40625 18.851563 19.917969 41.644532 20.21875.316406.003906.636718.007813.953125.007813 34.871093 0 66.261719-25.265626 73.246093-59.128907 9.824219-47.605469-26.164062-90.710937-73.289062-90.710937-20.011719 0-38.824219 7.792968-52.976562 21.941406l-21.191407-21.191406c19.8125-19.808594 46.152344-30.71875 74.167969-30.71875 28.445312 0 55.25 11.371094 74.917969 31.484375zm0 0"/></svg>