<?xml version="1.0" encoding="iso-8859-1"?>
<!-- Generator: Adobe Illustrator 19.0.0, SVG Export Plug-In . SVG Version: 6.00 Build 0)  -->
<svg version="1.1" id="Layer_1" xmlns="http://www.w3.org/2000/svg" xmlns:xlink="http://www.w3.org/1999/xlink" x="0px" y="0px"
	 viewBox="0 0 512 512" style="enable-background:new 0 0 512 512;" xml:space="preserve">
<polygon style="fill:#484B54;" points="483.209,267.765 28.788,267.765 52.017,488.727 459.98,488.727 "/>
<polyline style="fill:#383A42;" points="78.941,488.727 69.536,297.543 479.118,297.543 483.209,267.765 28.788,267.765 
	52.017,488.727 "/>
<rect x="0.003" y="183.943" style="fill:#E8B33F;" width="511.997" height="83.821"/>
<path style="fill:#F9C770;" d="M512,183.942v83.821H249.92c14.158-23.677,20.281-55.526,22.695-83.821H512z"/>
<rect y="183.128" style="fill:#D39F37;" width="50.729" height="84.633"/>
<rect x="93.006" y="239.552" style="fill:#92949B;" width="56.421" height="89.338"/>
<rect x="106.589" y="253.135" style="fill:#383A42;" width="29.254" height="62.171"/>
<rect x="362.577" y="239.552" style="fill:#92949B;" width="56.421" height="89.338"/>
<rect x="376.161" y="253.135" style="fill:#383A42;" width="29.254" height="62.171"/>
<g>
	<rect x="93.006" y="117.31" style="fill:#484B54;" width="43.883" height="66.633"/>
	<rect x="375.106" y="117.31" style="fill:#484B54;" width="43.883" height="66.633"/>
</g>
<path style="fill:#E8B33F;" d="M418.993,23.273H93.004H81c-17.583,0-31.838,14.254-31.838,31.838v95.514h43.842V78.127h325.989
	v72.498h43.842V55.111c0-17.583-14.254-31.838-31.838-31.838C430.997,23.273,418.993,23.273,418.993,23.273z"/>
<g>
</g>
<g>
</g>
<g>
</g>
<g>
</g>
<g>
</g>
<g>
</g>
<g>
</g>
<g>
</g>
<g>
</g>
<g>
</g>
<g>
</g>
<g>
</g>
<g>
</g>
<g>
</g>
<g>
</g>
</svg>
